PathFileType	4	(X/Y/Z)	c:/Users/goper/Files/vsCode/490R/osim_files/C06/C06_Fast_03.trc
DataRate	CameraRate	NumFrames	NumMarkers	Units                	OrigDataRate	OrigDataStartFrame	OrigNumFrames
250.00	250.00	4	36	mm	250.0	1577	3153
                Frame#	Time	LPSIS			LASIS			LTH1			LTH2			LTH3			LTH4			LLFE			LMFE			LSH1			LSH2			LSH3			LSH4			LLMAL			LMMAL			LCAL			LMTP5			LTOE			LMTP1			RPSIS			RASIS			RTH1			RTH2			RTH3			RTH4			RLFE			RMFE			RSH1			RSH2			RSH3			RSH4			RLMAL			RMMAL			RCAL			RMTP1			RTOE			RMTP5		
		X1	Y1	Z1	X2	Y2	Z2	X3	Y3	Z3	X4	Y4	Z4	X5	Y5	Z5	X6	Y6	Z6	X7	Y7	Z7	X8	Y8	Z8	X9	Y9	Z9	X10	Y10	Z10	X11	Y11	Z11	X12	Y12	Z12	X13	Y13	Z13	X14	Y14	Z14	X15	Y15	Z15	X16	Y16	Z16	X17	Y17	Z17	X18	Y18	Z18	X19	Y19	Z19	X20	Y20	Z20	X21	Y21	Z21	X22	Y22	Z22	X23	Y23	Z23	X24	Y24	Z24	X25	Y25	Z25	X26	Y26	Z26	X27	Y27	Z27	X28	Y28	Z28	X29	Y29	Z29	X30	Y30	Z30	X31	Y31	Z31	X32	Y32	Z32	X33	Y33	Z33	X34	Y34	Z34	X35	Y35	Z35	X36	Y36	Z36

1577	6.30400	-1019.32159	1008.82672	183.49387	-1200.35327	987.48151	271.86597	-1147.78918	776.48932	345.32861	-1163.29382	715.91376	339.23550	-1220.27917	790.00635	322.92239	-1225.62000	728.40063	320.26178	-1212.24976	469.84052	269.74866	-1193.27209	458.49091	154.16371	-1142.73865	362.17743	288.45599	-1145.86804	318.49887	282.99689	-1206.77161	361.44165	279.01080	-1199.32312	317.51505	274.74313	-1138.02478	87.25891	223.55402	-1143.40149	110.78008	147.97722	-1070.27148	68.35645	179.31375	-1248.09705	31.78424	243.22705	-1298.32385	52.49577	173.03391	-1266.96692	36.09839	130.12923	-1013.53040	1002.06006	113.27829	-1190.59924	972.08948	34.89640	-1127.34485	765.65942	-39.01073	-1150.96448	706.21320	-37.44780	-1200.14709	785.92944	-27.62646	-1211.70813	723.89685	-28.28465	-1196.22302	450.76382	-8.54824	-1237.03040	450.37906	98.11845	-1105.72998	437.92432	-18.82831	-1070.11572	405.17844	-15.61585	-1140.59546	388.78146	-13.89005	-1100.77869	364.20853	-11.75352	-892.52789	235.75249	46.10577	-929.62726	241.84703	119.66317	-840.46021	275.47208	98.10695	-933.19592	89.82268	127.90234	-954.02954	80.80275	77.76617	-901.13574	104.80755	19.01862
1578	6.30800	-1024.62476	1009.89716	183.37646	-1205.86450	988.16180	272.15927	-1151.96289	777.53741	344.93729	-1166.75793	716.31378	338.99368	-1224.21167	790.01270	322.87195	-1229.72461	728.57422	320.31854	-1213.17407	469.91071	269.64633	-1194.23315	458.51193	153.98715	-1143.16443	362.33142	288.25095	-1146.07617	318.53394	282.65891	-1207.17236	361.48898	279.00464	-1199.53198	317.49655	274.77304	-1138.13281	87.36794	223.43167	-1143.14624	110.57005	148.00275	-1070.28625	68.48589	179.25290	-1248.09631	31.81853	243.18381	-1298.37024	52.41616	172.99371	-1266.99768	36.05405	130.06424	-1018.86816	1003.28522	113.16221	-1195.96082	973.38342	35.16754	-1134.41614	766.95746	-39.44747	-1158.57788	707.79755	-37.91047	-1207.18091	787.98499	-27.74770	-1219.94739	726.19275	-28.63330	-1206.93677	452.76410	-8.77501	-1248.08362	452.90521	97.90253	-1116.56946	438.85925	-18.78425	-1081.66504	405.49249	-15.60277	-1152.14954	390.18143	-14.24491	-1112.69373	365.12671	-12.03699	-906.28943	233.70628	46.02013	-943.43530	239.96617	119.52059	-853.30121	271.97528	98.36565	-950.13403	88.02485	126.59636	-971.08032	79.89492	76.34194	-917.79761	103.11875	17.86219
1579	6.31200	-1030.02051	1010.89105	183.31717	-1211.41431	988.77356	272.47458	-1155.72021	778.05225	344.83408	-1169.92224	716.83685	338.74228	-1228.44543	790.27173	322.79205	-1232.28943	728.22546	319.89417	-1214.20996	469.96790	269.54544	-1195.03308	458.58276	153.80153	-1143.59900	362.50537	288.10489	-1146.32861	318.66043	282.48767	-1207.69946	361.51904	279.00095	-1199.79944	317.48032	274.80792	-1138.27661	87.49155	223.29681	-1143.23657	110.67892	147.93880	-1070.51282	68.53230	179.10519	-1248.12939	31.85485	243.15123	-1297.90002	52.56405	172.86314	-1267.02759	36.01480	130.01974	-1024.17908	1004.51404	113.02393	-1200.66382	974.46625	35.52933	-1141.39148	768.23688	-39.81720	-1166.17920	709.30737	-38.32313	-1214.03259	789.89288	-28.03867	-1227.32617	728.20837	-28.81487	-1217.72998	454.77045	-8.97067	-1258.77478	455.36069	97.62585	-1127.37476	439.72675	-18.79043	-1092.80237	405.95319	-15.69096	-1163.69849	391.57007	-14.44920	-1124.50183	366.02859	-12.33656	-920.49261	231.92325	45.63361	-957.39307	238.01073	119.32174	-866.58636	268.16220	98.95521	-967.24084	86.22932	125.21566	-988.31390	78.95867	74.92587	-934.39667	101.53431	16.64805
1580	6.31600	-1035.33252	1011.86072	183.28943	-1215.45190	988.93451	272.24939	-1159.64905	778.56909	344.65924	-1173.27600	717.24255	338.49689	-1232.40369	790.29645	322.75845	-1236.49829	728.48743	320.02139	-1215.15479	469.97772	269.40247	-1196.05774	458.66687	153.69083	-1144.03210	362.67456	288.02155	-1146.68372	318.82190	282.39362	-1208.22144	361.52686	278.97357	-1200.23730	317.54300	274.81119	-1138.42627	87.62276	223.19760	-1143.29773	110.80855	147.89478	-1070.62695	68.59375	179.03333	-1248.16370	31.88407	243.10385	-1298.01880	52.50358	172.88087	-1267.04688	35.97253	129.97156	-1029.48010	1005.65387	112.89002	-1206.64941	975.70947	35.72727	-1148.36584	769.48639	-40.22711	-1173.70288	710.80225	-38.71510	-1220.70215	791.72052	-28.29545	-1234.66748	730.29620	-29.15000	-1228.32007	456.77411	-9.09401	-1269.39966	457.84164	97.46151	-1138.26965	440.54758	-18.76673	-1104.15869	406.23486	-15.65508	-1175.22339	392.86176	-14.69604	-1137.74817	365.17093	-11.07087	-934.41553	229.53354	45.55070	-971.47821	235.89487	119.10356	-879.58441	264.23822	99.44914	-984.50128	84.33679	123.85778	-1005.54010	78.08978	73.37532	-951.23761	99.88972	15.46147
